<?xml version="1.0" encoding="iso-8859-1"?>
<!-- Generator: Adobe Illustrator 19.0.0, SVG Export Plug-In . SVG Version: 6.00 Build 0)  -->
<svg version="1.1" id="Capa_1" xmlns="http://www.w3.org/2000/svg" xmlns:xlink="http://www.w3.org/1999/xlink" x="0px" y="0px"
	 viewBox="0 0 512 512" style="enable-background:new 0 0 512 512;" xml:space="preserve">
<g>
	<path style="fill:#A4C2F7;" d="M256,85.333c-74.511-0.018-137.999,54.091-149.792,127.662s31.602,144.813,102.385,168.085v92.993
		h18.963v28.444h56.889v-28.444h18.963v-92.993c70.783-23.272,114.178-94.514,102.385-168.085
		C393.999,139.424,330.511,85.316,256,85.333z"/>
	
		<linearGradient id="SVGID_1_" gradientUnits="userSpaceOnUse" x1="-48.7449" y1="652.4918" x2="-47.8825" y2="651.9224" gradientTransform="matrix(275.4185 0 0 -417.1848 13550.3613 272368.0313)">
		<stop  offset="0" style="stop-color:#D4E1F4"/>
		<stop  offset="0.1717" style="stop-color:#D4E1F4"/>
		<stop  offset="0.2" style="stop-color:#D4E1F4"/>
		<stop  offset="0.2001" style="stop-color:#DAE4F4"/>
		<stop  offset="0.2007" style="stop-color:#EBEBF4"/>
		<stop  offset="0.2014" style="stop-color:#F6F1F4"/>
		<stop  offset="0.2023" style="stop-color:#FDF4F4"/>
		<stop  offset="0.205" style="stop-color:#FFF5F4"/>
		<stop  offset="0.2522" style="stop-color:#FFF5F4"/>
		<stop  offset="0.26" style="stop-color:#FFF5F4"/>
		<stop  offset="0.26" style="stop-color:#D4E1F4"/>
		<stop  offset="0.3974" style="stop-color:#D4E1F4"/>
		<stop  offset="0.42" style="stop-color:#D4E1F4"/>
		<stop  offset="0.4201" style="stop-color:#DAE4F4"/>
		<stop  offset="0.4207" style="stop-color:#EBEBF4"/>
		<stop  offset="0.4214" style="stop-color:#F6F1F4"/>
		<stop  offset="0.4223" style="stop-color:#FDF4F4"/>
		<stop  offset="0.425" style="stop-color:#FFF5F4"/>
		<stop  offset="0.4894" style="stop-color:#FFF5F4"/>
		<stop  offset="0.5" style="stop-color:#FFF5F4"/>
		<stop  offset="0.5" style="stop-color:#F9F2F4"/>
		<stop  offset="0.5001" style="stop-color:#E8EBF4"/>
		<stop  offset="0.5003" style="stop-color:#DDE5F4"/>
		<stop  offset="0.5005" style="stop-color:#D6E2F4"/>
		<stop  offset="0.501" style="stop-color:#D4E1F4"/>
		<stop  offset="0.7062" style="stop-color:#D4E1F4"/>
		<stop  offset="0.74" style="stop-color:#D4E1F4"/>
		<stop  offset="0.741" style="stop-color:#FFF5F4"/>
		<stop  offset="0.8346" style="stop-color:#FFF5F4"/>
		<stop  offset="0.85" style="stop-color:#FFF5F4"/>
		<stop  offset="0.851" style="stop-color:#D4E1F4"/>
	</linearGradient>
	<path style="fill:url(#SVGID_1_);" d="M227.556,85.333c-0.683,0-1.341,0.093-2.023,0.102c-0.411,1.159-1.015,2.241-1.786,3.199
		c-6.146,6.532-14.458,10.606-23.385,11.461c-8.088,0.329-16.003,2.44-23.181,6.183c0.792,3.205-0.488,6.565-3.212,8.431
		c-15.769,12.412-33.788,24.868-43.434,42.963c-1.351,2.837-4.1,4.75-7.229,5.032c2.369,3.108,2.724,7.307,0.91,10.769
		c-4.364,11.51-11.333,21.854-20.361,30.222c1.897,11.468,3.066,23.044,3.5,34.66c0.088,2.204,0.028,5.067-0.09,8.271
		c9.377,21.487,15.311,44.317,17.583,67.65c10.382,12.238,20.877,24.352,32.056,35.787c7.783,5.17,14.932,11.234,21.302,18.07
		c10.522,3.98,19.26,11.617,24.612,21.512c4.177,11.564,4.712,24.13,1.532,36.007c4.658,1.82,7.301,6.758,6.232,11.643
		c-1.919,9.361-3.993,18.711-5.082,28.215c-0.26,2.282-0.848,6.157-1.186,10.356c0.451-0.042,0.759-0.19,1.252-0.204
		c15.117-0.444,24.19,14.674,29.425,26.857H256v-28.444h18.963v-92.993c70.783-23.272,114.178-94.514,102.385-168.085
		S302.066,85.316,227.556,85.333z"/>
	<path style="fill:#FFFFFF;" d="M256,85.333c4.801,0,9.535,0.282,14.222,0.718c-71.507,6.704-128.503,62.654-136.531,134.024
		s35.115,138.584,103.346,161.006v92.993H256v28.444h-28.444v-28.444h-18.963v-92.993
		c-70.783-23.272-114.178-94.514-102.385-168.085S181.489,85.316,256,85.333z"/>
	<rect x="237.037" y="407.704" style="fill:#E3E7F2;" width="37.926" height="94.815"/>
	<rect x="274.963" y="407.704" style="fill:#A4C2F7;" width="28.444" height="66.37"/>
	<rect x="208.593" y="407.704" style="fill:#FFFFFF;" width="28.444" height="66.37"/>
	<g>
		<path style="fill:#428DFF;" d="M256,56.889c-2.515,0.001-4.928-0.997-6.706-2.775c-1.778-1.778-2.777-4.191-2.775-6.706V9.481
			C246.519,4.245,250.764,0,256,0c5.236,0,9.481,4.245,9.481,9.481v37.926c0.001,2.515-0.997,4.928-2.775,6.706
			C260.928,55.892,258.515,56.89,256,56.889z"/>
		<path style="fill:#428DFF;" d="M483.556,246.519H445.63c-5.236,0-9.481-4.245-9.481-9.481c0-5.236,4.245-9.481,9.481-9.481h37.926
			c5.236,0,9.481,4.245,9.481,9.481C493.037,242.274,488.792,246.519,483.556,246.519z"/>
		<path style="fill:#428DFF;" d="M66.37,246.519H28.444c-5.236,0-9.481-4.245-9.481-9.481c0-5.236,4.245-9.481,9.481-9.481H66.37
			c5.236,0,9.481,4.245,9.481,9.481C75.852,242.274,71.607,246.519,66.37,246.519z"/>
		<path style="fill:#428DFF;" d="M390.093,112.426c-3.834-0.001-7.291-2.311-8.758-5.853c-1.467-3.542-0.656-7.62,2.054-10.332
			l26.815-26.815c3.702-3.702,9.705-3.702,13.407,0c3.702,3.702,3.702,9.705,0,13.407l-26.815,26.815
			C395.021,111.429,392.608,112.429,390.093,112.426L390.093,112.426z"/>
		<path style="fill:#428DFF;" d="M95.093,407.426c-3.834-0.001-7.291-2.311-8.758-5.853c-1.467-3.542-0.656-7.62,2.054-10.332
			l26.815-26.815c2.395-2.395,5.886-3.33,9.157-2.454c3.272,0.877,5.827,3.432,6.704,6.704c0.877,3.272-0.059,6.762-2.454,9.157
			l-26.815,26.815C100.021,406.429,97.608,407.429,95.093,407.426L95.093,407.426z"/>
		<path style="fill:#428DFF;" d="M416.907,407.426c-2.515,0.003-4.928-0.997-6.703-2.778l-26.815-26.815
			c-3.702-3.702-3.702-9.705,0-13.407c3.702-3.702,9.705-3.702,13.407,0l26.815,26.815c2.711,2.712,3.522,6.789,2.054,10.332
			C424.199,405.114,420.742,407.425,416.907,407.426L416.907,407.426z"/>
		<path style="fill:#428DFF;" d="M121.907,112.426c-2.515,0.003-4.928-0.997-6.703-2.778L88.389,82.833
			c-2.395-2.395-3.33-5.886-2.454-9.157c0.877-3.272,3.432-5.827,6.704-6.704s6.762,0.059,9.157,2.454l26.815,26.815
			c2.711,2.712,3.522,6.789,2.054,10.332C129.199,110.114,125.742,112.425,121.907,112.426L121.907,112.426z"/>
		<path style="fill:#428DFF;" d="M284.444,512h-56.889c-2.515,0.001-4.928-0.997-6.706-2.775c-1.778-1.778-2.777-4.191-2.775-6.706
			v-18.963h-9.481c-2.515,0.001-4.928-0.997-6.706-2.775c-1.778-1.778-2.777-4.191-2.775-6.706v-86.278
			c-72.857-27.483-115.65-103.121-101.682-179.726C111.397,131.466,178.132,75.799,256,75.799s144.603,55.667,158.571,132.272
			c13.968,76.605-28.825,152.243-101.682,179.726v86.278c0.001,2.515-0.997,4.928-2.775,6.706c-1.778,1.778-4.191,2.777-6.706,2.775
			h-9.481v18.963c0.001,2.515-0.997,4.928-2.775,6.706C289.372,511.003,286.96,512.001,284.444,512z M237.037,493.037h37.926
			v-18.963c-0.001-2.515,0.997-4.928,2.775-6.706c1.778-1.778,4.191-2.777,6.706-2.775h9.481v-83.509
			c0-4.095,2.629-7.728,6.519-9.009c66.361-21.831,107.041-88.626,95.986-157.605S325.859,94.752,256,94.752
			S126.625,145.49,115.57,214.469s29.625,135.774,95.986,157.605c3.89,1.281,6.518,4.914,6.519,9.009v83.509h9.481
			c2.515-0.001,4.928,0.997,6.706,2.775c1.778,1.778,2.777,4.191,2.775,6.706V493.037z"/>
		<path style="fill:#428DFF;" d="M303.407,417.185h-94.815c-5.236,0-9.481-4.245-9.481-9.481s4.245-9.481,9.481-9.481h94.815
			c5.236,0,9.481,4.245,9.481,9.481S308.644,417.185,303.407,417.185z"/>
		<path style="fill:#428DFF;" d="M151.704,246.519c-2.515,0.001-4.928-0.997-6.706-2.775c-1.778-1.778-2.777-4.191-2.775-6.706
			c0.069-62.809,50.968-113.709,113.778-113.778c5.236,0,9.481,4.245,9.481,9.481c0,5.236-4.245,9.481-9.481,9.481
			c-52.339,0.061-94.753,42.476-94.815,94.815c0.001,2.515-0.997,4.928-2.775,6.706C156.631,245.521,154.219,246.52,151.704,246.519
			z"/>
	</g>
</g>
<g>
</g>
<g>
</g>
<g>
</g>
<g>
</g>
<g>
</g>
<g>
</g>
<g>
</g>
<g>
</g>
<g>
</g>
<g>
</g>
<g>
</g>
<g>
</g>
<g>
</g>
<g>
</g>
<g>
</g>
</svg>
