<?xml version="1.0" encoding="iso-8859-1"?>
<!-- Generator: Adobe Illustrator 19.0.0, SVG Export Plug-In . SVG Version: 6.00 Build 0)  -->
<svg version="1.1" id="Capa_1" xmlns="http://www.w3.org/2000/svg" xmlns:xlink="http://www.w3.org/1999/xlink" x="0px" y="0px"
	 viewBox="0 0 512 512" style="enable-background:new 0 0 512 512;" xml:space="preserve">
<g>
	<polygon style="fill:#A4C2F7;" points="448,128 328.533,8.533 234.667,8.533 234.667,503.467 448,503.467 	"/>
	<polygon style="fill:#FFFFFF;" points="277.333,128 157.867,8.533 64,8.533 64,503.467 277.333,503.467 	"/>
	
		<linearGradient id="SVGID_1_" gradientUnits="userSpaceOnUse" x1="-49.0515" y1="652.5855" x2="-47.8079" y2="651.7493" gradientTransform="matrix(332.8 0 0 -494.9333 16347.7979 323061.0313)">
		<stop  offset="0" style="stop-color:#D4E1F4"/>
		<stop  offset="0.1717" style="stop-color:#D4E1F4"/>
		<stop  offset="0.2" style="stop-color:#D4E1F4"/>
		<stop  offset="0.2001" style="stop-color:#DAE4F4"/>
		<stop  offset="0.2007" style="stop-color:#EBEBF4"/>
		<stop  offset="0.2014" style="stop-color:#F6F1F4"/>
		<stop  offset="0.2023" style="stop-color:#FDF4F4"/>
		<stop  offset="0.205" style="stop-color:#FFF5F4"/>
		<stop  offset="0.2522" style="stop-color:#FFF5F4"/>
		<stop  offset="0.26" style="stop-color:#FFF5F4"/>
		<stop  offset="0.26" style="stop-color:#D4E1F4"/>
		<stop  offset="0.3974" style="stop-color:#D4E1F4"/>
		<stop  offset="0.42" style="stop-color:#D4E1F4"/>
		<stop  offset="0.4201" style="stop-color:#DAE4F4"/>
		<stop  offset="0.4207" style="stop-color:#EBEBF4"/>
		<stop  offset="0.4214" style="stop-color:#F6F1F4"/>
		<stop  offset="0.4223" style="stop-color:#FDF4F4"/>
		<stop  offset="0.425" style="stop-color:#FFF5F4"/>
		<stop  offset="0.4894" style="stop-color:#FFF5F4"/>
		<stop  offset="0.5" style="stop-color:#FFF5F4"/>
		<stop  offset="0.5" style="stop-color:#F9F2F4"/>
		<stop  offset="0.5001" style="stop-color:#E8EBF4"/>
		<stop  offset="0.5003" style="stop-color:#DDE5F4"/>
		<stop  offset="0.5005" style="stop-color:#D6E2F4"/>
		<stop  offset="0.501" style="stop-color:#D4E1F4"/>
		<stop  offset="0.7062" style="stop-color:#D4E1F4"/>
		<stop  offset="0.74" style="stop-color:#D4E1F4"/>
		<stop  offset="0.741" style="stop-color:#FFF5F4"/>
		<stop  offset="0.8346" style="stop-color:#FFF5F4"/>
		<stop  offset="0.85" style="stop-color:#FFF5F4"/>
		<stop  offset="0.851" style="stop-color:#D4E1F4"/>
	</linearGradient>
	<polygon style="fill:url(#SVGID_1_);" points="422.4,128 320,8.533 89.6,8.533 89.6,503.467 422.4,503.467 	"/>
	<polygon style="fill:#A4C2F7;" points="328.533,8.533 328.533,128 448,128 	"/>
	<g>
		<path style="fill:#428DFF;" d="M448,512H64c-2.263,0.001-4.434-0.898-6.035-2.499c-1.6-1.6-2.499-3.771-2.499-6.035V8.533
			c-0.001-2.263,0.898-4.434,2.499-6.035C59.566,0.898,61.737-0.001,64,0h264.533c2.263,0.001,4.433,0.9,6.033,2.5l119.467,119.467
			c1.601,1.6,2.5,3.77,2.5,6.033v375.467c0.001,2.263-0.898,4.434-2.499,6.035C452.434,511.102,450.263,512.001,448,512L448,512z
			 M72.533,494.933h366.933v-363.4L325,17.067H72.533V494.933z"/>
		<path style="fill:#428DFF;" d="M448,136.533H328.533c-2.263,0.001-4.434-0.898-6.035-2.499c-1.6-1.6-2.499-3.771-2.499-6.035
			V8.533C320,3.821,323.821,0,328.533,0s8.533,3.821,8.533,8.533v110.933H448c4.713,0,8.533,3.821,8.533,8.533
			C456.533,132.713,452.713,136.533,448,136.533z"/>
		<path style="fill:#428DFF;" d="M362.667,196.267H226.133c-4.713,0-8.533-3.821-8.533-8.533c0-4.713,3.821-8.533,8.533-8.533
			h136.533c4.713,0,8.533,3.821,8.533,8.533C371.2,192.446,367.38,196.267,362.667,196.267z"/>
		<path style="fill:#428DFF;" d="M157.871,204.8c-2.265,0.004-4.438-0.896-6.038-2.5l-17.067-17.067
			c-3.288-3.34-3.267-8.706,0.047-12.019c3.314-3.314,8.68-3.335,12.019-0.047l11.667,11.667l36.704-29.367
			c3.683-2.927,9.039-2.322,11.977,1.353c2.937,3.674,2.348,9.033-1.319,11.98l-42.667,34.133
			C161.684,204.143,159.806,204.801,157.871,204.8z"/>
		<path style="fill:#428DFF;" d="M362.667,290.133H226.133c-4.713,0-8.533-3.821-8.533-8.533s3.821-8.533,8.533-8.533h136.533
			c4.713,0,8.533,3.82,8.533,8.533S367.38,290.133,362.667,290.133z"/>
		<path style="fill:#428DFF;" d="M157.871,298.667c-2.265,0.004-4.438-0.896-6.038-2.5L134.767,279.1
			c-2.184-2.15-3.047-5.305-2.261-8.267c0.785-2.962,3.099-5.275,6.061-6.06c2.962-0.785,6.117,0.078,8.267,2.261L158.5,278.7
			l36.704-29.367c3.683-2.927,9.039-2.322,11.977,1.353c2.937,3.674,2.348,9.033-1.319,11.98L163.195,296.8
			C161.684,298.01,159.806,298.668,157.871,298.667z"/>
		<path style="fill:#428DFF;" d="M362.667,384H226.133c-4.713,0-8.533-3.821-8.533-8.533c0-4.713,3.821-8.533,8.533-8.533h136.533
			c4.713,0,8.533,3.821,8.533,8.533C371.2,380.18,367.38,384,362.667,384z"/>
		<path style="fill:#428DFF;" d="M157.871,392.533c-2.265,0.004-4.438-0.896-6.038-2.5l-17.067-17.067
			c-3.288-3.34-3.267-8.706,0.047-12.019c3.314-3.314,8.68-3.335,12.019-0.047l11.667,11.667l36.704-29.367
			c3.683-2.927,9.039-2.322,11.977,1.353s2.348,9.033-1.319,11.98l-42.667,34.133C161.684,391.876,159.806,392.535,157.871,392.533
			L157.871,392.533z"/>
	</g>
</g>
<g>
</g>
<g>
</g>
<g>
</g>
<g>
</g>
<g>
</g>
<g>
</g>
<g>
</g>
<g>
</g>
<g>
</g>
<g>
</g>
<g>
</g>
<g>
</g>
<g>
</g>
<g>
</g>
<g>
</g>
</svg>
